<mxfile host="app.diagrams.net" modified="2024-02-18T16:50:14.475Z" agent="Mozilla/5.0 (Windows NT 10.0; Win64; x64) AppleWebKit/537.36 (KHTML, like Gecko) Chrome/121.0.0.0 Safari/537.36" etag="iBfEUJCQ72JKSDpIIgyx" version="23.1.2" type="github">
  <diagram name="第 1 页" id="VFCjEm5W6MaqiMix1aKl">
    <mxGraphModel dx="1510" dy="368" grid="1" gridSize="10" guides="1" tooltips="1" connect="1" arrows="1" fold="1" page="1" pageScale="1" pageWidth="827" pageHeight="1169" math="0" shadow="0">
      <root>
        <mxCell id="0" />
        <mxCell id="1" parent="0" />
        <mxCell id="O1jKtoPmyAMp938oBS-_-39" value="&lt;font color=&quot;#0000ff&quot; style=&quot;font-size: 14px;&quot;&gt;登入頁面&lt;/font&gt;" style="outlineConnect=0;gradientColor=none;html=1;whiteSpace=wrap;fontSize=12;fontStyle=0;strokeColor=#0000ff;fillColor=none;verticalAlign=top;align=center;fontColor=#FF9900;dashed=0;spacingTop=3;" parent="1" vertex="1">
          <mxGeometry x="-190" y="337.5" width="60" height="130" as="geometry" />
        </mxCell>
        <mxCell id="O1jKtoPmyAMp938oBS-_-8" value="" style="outlineConnect=0;gradientColor=none;html=1;whiteSpace=wrap;fontSize=12;fontStyle=0;strokeColor=#0000ff;fillColor=none;verticalAlign=top;align=center;fontColor=#FF9900;dashed=0;spacingTop=3;" parent="1" vertex="1">
          <mxGeometry x="-90" y="125" width="1150" height="555" as="geometry" />
        </mxCell>
        <mxCell id="VvQtCBpBmSeENk6v5BYq-13" style="edgeStyle=orthogonalEdgeStyle;rounded=0;orthogonalLoop=1;jettySize=auto;html=1;" parent="1" edge="1">
          <mxGeometry relative="1" as="geometry">
            <mxPoint x="-90" y="401" as="targetPoint" />
            <mxPoint x="-130" y="401" as="sourcePoint" />
            <Array as="points">
              <mxPoint x="-90" y="401" />
            </Array>
          </mxGeometry>
        </mxCell>
        <mxCell id="O1jKtoPmyAMp938oBS-_-2" value="Admin&lt;br&gt;" style="sketch=0;outlineConnect=0;fontColor=#232F3E;gradientColor=none;strokeColor=#232F3E;fillColor=#ffffff;dashed=0;verticalLabelPosition=bottom;verticalAlign=top;align=center;html=1;fontSize=12;fontStyle=0;aspect=fixed;shape=mxgraph.aws4.resourceIcon;resIcon=mxgraph.aws4.user;" parent="1" vertex="1">
          <mxGeometry x="-185" y="375" width="50" height="50" as="geometry" />
        </mxCell>
        <mxCell id="Y38niOHaq9nBWTBVeWCu-6" style="edgeStyle=orthogonalEdgeStyle;rounded=0;orthogonalLoop=1;jettySize=auto;html=1;" parent="1" source="Y38niOHaq9nBWTBVeWCu-18" target="8HAPZSc-oPPEdkhKKwZJ-15" edge="1">
          <mxGeometry relative="1" as="geometry">
            <mxPoint x="500" y="610" as="sourcePoint" />
            <Array as="points">
              <mxPoint x="150" y="609" />
              <mxPoint x="150" y="395" />
            </Array>
          </mxGeometry>
        </mxCell>
        <mxCell id="O1jKtoPmyAMp938oBS-_-25" style="edgeStyle=orthogonalEdgeStyle;rounded=0;orthogonalLoop=1;jettySize=auto;html=1;exitX=0.5;exitY=1;exitDx=0;exitDy=0;" parent="1" edge="1">
          <mxGeometry relative="1" as="geometry">
            <mxPoint x="316.75" y="157.5" as="sourcePoint" />
            <mxPoint x="316.75" y="157.5" as="targetPoint" />
          </mxGeometry>
        </mxCell>
        <mxCell id="Y38niOHaq9nBWTBVeWCu-17" style="edgeStyle=orthogonalEdgeStyle;rounded=0;orthogonalLoop=1;jettySize=auto;html=1;" parent="1" source="O1jKtoPmyAMp938oBS-_-31" target="Y38niOHaq9nBWTBVeWCu-18" edge="1">
          <mxGeometry relative="1" as="geometry">
            <mxPoint x="587.5" y="610" as="targetPoint" />
            <Array as="points">
              <mxPoint x="720" y="610" />
              <mxPoint x="720" y="610" />
            </Array>
          </mxGeometry>
        </mxCell>
        <mxCell id="O1jKtoPmyAMp938oBS-_-31" value="&lt;font style=&quot;font-size: 12px;&quot;&gt;Amazon DynamoDB&lt;/font&gt;" style="sketch=0;outlineConnect=0;fontColor=#232F3E;gradientColor=none;strokeColor=#ffffff;fillColor=#232F3E;dashed=0;verticalLabelPosition=middle;verticalAlign=bottom;align=center;html=1;whiteSpace=wrap;fontSize=10;fontStyle=1;spacing=3;shape=mxgraph.aws4.productIcon;prIcon=mxgraph.aws4.dynamodb;" parent="1" vertex="1">
          <mxGeometry x="850" y="560" width="50" height="90" as="geometry" />
        </mxCell>
        <mxCell id="O1jKtoPmyAMp938oBS-_-47" value="&lt;font style=&quot;font-size: 12px;&quot;&gt;Amazon Rekognition&lt;/font&gt;" style="sketch=0;outlineConnect=0;fontColor=#232F3E;gradientColor=none;strokeColor=#ffffff;fillColor=#232F3E;dashed=0;verticalLabelPosition=middle;verticalAlign=bottom;align=center;html=1;whiteSpace=wrap;fontSize=10;fontStyle=1;spacing=3;shape=mxgraph.aws4.productIcon;prIcon=mxgraph.aws4.rekognition;" parent="1" vertex="1">
          <mxGeometry x="678.25" y="236" width="50" height="80" as="geometry" />
        </mxCell>
        <mxCell id="a6JBxLxwtquYG9cKJR-4-15" value="" style="edgeStyle=orthogonalEdgeStyle;html=1;endArrow=openThin;elbow=vertical;startArrow=none;endFill=0;strokeColor=#000000;rounded=0;strokeWidth=1;" parent="1" edge="1">
          <mxGeometry width="100" relative="1" as="geometry">
            <mxPoint x="560" y="591" as="sourcePoint" />
            <mxPoint x="850" y="591.0285714285714" as="targetPoint" />
            <Array as="points">
              <mxPoint x="560" y="590" />
              <mxPoint x="560" y="591" />
            </Array>
          </mxGeometry>
        </mxCell>
        <mxCell id="pPQGrUG8o8pBh9T2TDlA-1" value="&lt;font style=&quot;font-size: 12px;&quot;&gt;AWS Lambda&lt;/font&gt;" style="sketch=0;outlineConnect=0;fontColor=#232F3E;gradientColor=none;strokeColor=#ffffff;fillColor=#232F3E;dashed=0;verticalLabelPosition=middle;verticalAlign=bottom;align=center;html=1;whiteSpace=wrap;fontSize=10;fontStyle=1;spacing=3;shape=mxgraph.aws4.productIcon;prIcon=mxgraph.aws4.lambda;" parent="1" vertex="1">
          <mxGeometry x="509" y="230" width="50" height="81" as="geometry" />
        </mxCell>
        <mxCell id="pPQGrUG8o8pBh9T2TDlA-9" style="edgeStyle=orthogonalEdgeStyle;rounded=0;orthogonalLoop=1;jettySize=auto;html=1;" parent="1" source="VvQtCBpBmSeENk6v5BYq-33" target="O1jKtoPmyAMp938oBS-_-31" edge="1">
          <mxGeometry relative="1" as="geometry">
            <mxPoint x="1287" y="570" as="targetPoint" />
            <mxPoint x="538" y="380" as="sourcePoint" />
            <Array as="points">
              <mxPoint x="880" y="340" />
            </Array>
          </mxGeometry>
        </mxCell>
        <mxCell id="pPQGrUG8o8pBh9T2TDlA-4" value="" style="edgeStyle=orthogonalEdgeStyle;html=1;endArrow=openThin;elbow=vertical;startArrow=none;endFill=0;strokeColor=#000000;rounded=0;" parent="1" edge="1">
          <mxGeometry width="100" relative="1" as="geometry">
            <mxPoint x="562.5" y="255.5" as="sourcePoint" />
            <mxPoint x="678.25" y="255.5" as="targetPoint" />
          </mxGeometry>
        </mxCell>
        <mxCell id="pPQGrUG8o8pBh9T2TDlA-8" value="&lt;font style=&quot;font-size: 14px;&quot;&gt;人臉辨識&lt;/font&gt;" style="text;html=1;strokeColor=none;fillColor=none;align=center;verticalAlign=middle;whiteSpace=wrap;rounded=0;" parent="1" vertex="1">
          <mxGeometry x="587.5" y="225" width="60" height="30" as="geometry" />
        </mxCell>
        <mxCell id="pPQGrUG8o8pBh9T2TDlA-14" value="&lt;font style=&quot;font-size: 16px;&quot;&gt;後端&lt;/font&gt;" style="text;html=1;strokeColor=none;fillColor=none;align=center;verticalAlign=middle;whiteSpace=wrap;rounded=0;fontSize=16;fontColor=#0000ff;" parent="1" vertex="1">
          <mxGeometry x="160" y="126" width="230" height="30" as="geometry" />
        </mxCell>
        <mxCell id="pPQGrUG8o8pBh9T2TDlA-15" value="管理介面" style="text;html=1;strokeColor=none;fillColor=none;align=center;verticalAlign=middle;whiteSpace=wrap;rounded=0;fontSize=16;fontColor=#0000ff;" parent="1" vertex="1">
          <mxGeometry x="-68" y="126" width="151.5" height="30" as="geometry" />
        </mxCell>
        <mxCell id="Vm1vwxEjEGVl82Kh1ue6-2" value="" style="edgeStyle=orthogonalEdgeStyle;html=1;endArrow=none;elbow=vertical;startArrow=openThin;startFill=0;strokeColor=#000000;rounded=0;" parent="1" edge="1">
          <mxGeometry width="100" relative="1" as="geometry">
            <mxPoint x="560.75" y="268.08" as="sourcePoint" />
            <mxPoint x="678.25" y="268.08" as="targetPoint" />
          </mxGeometry>
        </mxCell>
        <mxCell id="Vm1vwxEjEGVl82Kh1ue6-3" value="&lt;font style=&quot;font-size: 14px;&quot;&gt;回傳結果&lt;/font&gt;" style="text;html=1;strokeColor=none;fillColor=none;align=center;verticalAlign=middle;whiteSpace=wrap;rounded=0;" parent="1" vertex="1">
          <mxGeometry x="566.5" y="266" width="102" height="30" as="geometry" />
        </mxCell>
        <mxCell id="Vm1vwxEjEGVl82Kh1ue6-5" value="&lt;font style=&quot;font-size: 14px;&quot;&gt;存進資料庫&lt;/font&gt;" style="text;html=1;strokeColor=none;fillColor=none;align=center;verticalAlign=middle;whiteSpace=wrap;rounded=0;rotation=0;" parent="1" vertex="1">
          <mxGeometry x="880" y="430" width="90" height="30" as="geometry" />
        </mxCell>
        <mxCell id="Vm1vwxEjEGVl82Kh1ue6-13" value="&lt;font style=&quot;font-size: 14px;&quot;&gt;資料庫管理&lt;/font&gt;" style="sketch=0;outlineConnect=0;fontColor=#232F3E;gradientColor=none;strokeColor=#232F3E;fillColor=#ffffff;dashed=0;verticalLabelPosition=bottom;verticalAlign=top;align=center;html=1;fontSize=12;fontStyle=0;aspect=fixed;shape=mxgraph.aws4.resourceIcon;resIcon=mxgraph.aws4.container_1;" parent="1" vertex="1">
          <mxGeometry x="-40" y="500" width="40" height="40" as="geometry" />
        </mxCell>
        <mxCell id="8HAPZSc-oPPEdkhKKwZJ-7" value="&lt;font style=&quot;font-size: 12px;&quot;&gt;AWS Lambda&lt;/font&gt;" style="sketch=0;outlineConnect=0;fontColor=#232F3E;gradientColor=none;strokeColor=#ffffff;fillColor=#232F3E;dashed=0;verticalLabelPosition=middle;verticalAlign=bottom;align=center;html=1;whiteSpace=wrap;fontSize=10;fontStyle=1;spacing=3;shape=mxgraph.aws4.productIcon;prIcon=mxgraph.aws4.lambda;" parent="1" vertex="1">
          <mxGeometry x="507.5" y="366" width="50" height="84" as="geometry" />
        </mxCell>
        <mxCell id="8HAPZSc-oPPEdkhKKwZJ-8" value="" style="edgeStyle=orthogonalEdgeStyle;html=1;endArrow=openThin;elbow=vertical;startArrow=none;endFill=0;strokeColor=#000000;rounded=0;" parent="1" edge="1">
          <mxGeometry width="100" relative="1" as="geometry">
            <mxPoint x="562.5" y="385.5" as="sourcePoint" />
            <mxPoint x="678.25" y="385.5" as="targetPoint" />
          </mxGeometry>
        </mxCell>
        <mxCell id="8HAPZSc-oPPEdkhKKwZJ-11" value="" style="edgeStyle=orthogonalEdgeStyle;html=1;endArrow=none;elbow=vertical;startArrow=openThin;startFill=0;strokeColor=#000000;rounded=0;" parent="1" edge="1">
          <mxGeometry width="100" relative="1" as="geometry">
            <mxPoint x="560.75" y="400.17" as="sourcePoint" />
            <mxPoint x="678.25" y="400.17" as="targetPoint" />
          </mxGeometry>
        </mxCell>
        <mxCell id="8HAPZSc-oPPEdkhKKwZJ-12" value="&lt;font style=&quot;font-size: 14px;&quot;&gt;回傳結果&lt;/font&gt;" style="text;html=1;strokeColor=none;fillColor=none;align=center;verticalAlign=middle;whiteSpace=wrap;rounded=0;" parent="1" vertex="1">
          <mxGeometry x="566.5" y="400" width="102" height="30" as="geometry" />
        </mxCell>
        <mxCell id="8HAPZSc-oPPEdkhKKwZJ-14" value="&lt;font style=&quot;font-size: 14px;&quot;&gt;行為辨識&lt;/font&gt;" style="text;html=1;strokeColor=none;fillColor=none;align=center;verticalAlign=middle;whiteSpace=wrap;rounded=0;" parent="1" vertex="1">
          <mxGeometry x="587.5" y="361" width="60" height="30" as="geometry" />
        </mxCell>
        <mxCell id="KDjexT_6C_Oc_Iz0sEzi-1" style="edgeStyle=orthogonalEdgeStyle;rounded=0;orthogonalLoop=1;jettySize=auto;html=1;" parent="1" source="Vm1vwxEjEGVl82Kh1ue6-8" target="-sES5BDnEpW2IbtICMvI-1" edge="1">
          <mxGeometry relative="1" as="geometry" />
        </mxCell>
        <mxCell id="Vm1vwxEjEGVl82Kh1ue6-8" value="&lt;font style=&quot;font-size: 14px;&quot;&gt;Camera&lt;/font&gt;" style="sketch=0;outlineConnect=0;fontColor=#232F3E;gradientColor=none;strokeColor=#232F3E;fillColor=#ffffff;dashed=0;verticalLabelPosition=bottom;verticalAlign=top;align=center;html=1;fontSize=12;fontStyle=0;aspect=fixed;shape=mxgraph.aws4.resourceIcon;resIcon=mxgraph.aws4.camera;" parent="1" vertex="1">
          <mxGeometry x="-200" y="150" width="60" height="60" as="geometry" />
        </mxCell>
        <mxCell id="VvQtCBpBmSeENk6v5BYq-14" value="&lt;font style=&quot;font-size: 14px;&quot;&gt;系統開/關&lt;/font&gt;" style="sketch=0;outlineConnect=0;fontColor=#232F3E;gradientColor=none;strokeColor=#232F3E;fillColor=#ffffff;dashed=0;verticalLabelPosition=bottom;verticalAlign=top;align=center;html=1;fontSize=12;fontStyle=0;aspect=fixed;shape=mxgraph.aws4.resourceIcon;resIcon=mxgraph.aws4.container_1;" parent="1" vertex="1">
          <mxGeometry x="-40" y="220" width="40" height="40" as="geometry" />
        </mxCell>
        <mxCell id="VvQtCBpBmSeENk6v5BYq-22" value="" style="endArrow=none;html=1;rounded=0;strokeColor=#0000ff;" parent="1" source="8HAPZSc-oPPEdkhKKwZJ-15" edge="1">
          <mxGeometry width="50" height="50" relative="1" as="geometry">
            <mxPoint x="111" y="690" as="sourcePoint" />
            <mxPoint x="105" y="126" as="targetPoint" />
            <Array as="points">
              <mxPoint x="105" y="150" />
            </Array>
          </mxGeometry>
        </mxCell>
        <mxCell id="VvQtCBpBmSeENk6v5BYq-24" value="" style="strokeWidth=2;html=1;shape=mxgraph.flowchart.annotation_2;align=left;labelPosition=right;pointerEvents=1;rotation=-180;" parent="1" vertex="1">
          <mxGeometry x="10" y="240" width="80" height="280" as="geometry" />
        </mxCell>
        <mxCell id="Y38niOHaq9nBWTBVeWCu-12" style="edgeStyle=orthogonalEdgeStyle;rounded=0;orthogonalLoop=1;jettySize=auto;html=1;" parent="1" source="VvQtCBpBmSeENk6v5BYq-33" edge="1">
          <mxGeometry relative="1" as="geometry">
            <mxPoint x="880" y="241" as="targetPoint" />
            <Array as="points">
              <mxPoint x="880" y="321" />
            </Array>
          </mxGeometry>
        </mxCell>
        <mxCell id="VvQtCBpBmSeENk6v5BYq-33" value="" style="line;strokeWidth=4;direction=south;html=1;perimeter=backbonePerimeter;points=[];outlineConnect=0;" parent="1" vertex="1">
          <mxGeometry x="528" y="310" width="12" height="56" as="geometry" />
        </mxCell>
        <mxCell id="VvQtCBpBmSeENk6v5BYq-34" value="" style="endArrow=none;html=1;rounded=0;strokeColor=#0000ff;" parent="1" edge="1">
          <mxGeometry width="50" height="50" relative="1" as="geometry">
            <mxPoint x="104.5" y="680" as="sourcePoint" />
            <mxPoint x="104.79999999999995" y="475" as="targetPoint" />
            <Array as="points">
              <mxPoint x="105" y="505" />
              <mxPoint x="104.75" y="440" />
            </Array>
          </mxGeometry>
        </mxCell>
        <mxCell id="Y38niOHaq9nBWTBVeWCu-7" style="edgeStyle=orthogonalEdgeStyle;rounded=0;orthogonalLoop=1;jettySize=auto;html=1;" parent="1" edge="1">
          <mxGeometry relative="1" as="geometry">
            <mxPoint x="80" y="395" as="sourcePoint" />
            <mxPoint x="10" y="540" as="targetPoint" />
            <Array as="points">
              <mxPoint x="70" y="395" />
              <mxPoint x="70" y="540" />
            </Array>
          </mxGeometry>
        </mxCell>
        <mxCell id="Y38niOHaq9nBWTBVeWCu-23" style="edgeStyle=orthogonalEdgeStyle;rounded=0;orthogonalLoop=1;jettySize=auto;html=1;" parent="1" edge="1" target="Y38niOHaq9nBWTBVeWCu-18">
          <mxGeometry relative="1" as="geometry">
            <mxPoint x="133" y="380" as="sourcePoint" />
            <mxPoint x="500" y="590" as="targetPoint" />
            <Array as="points">
              <mxPoint x="180" y="380" />
              <mxPoint x="180" y="590" />
            </Array>
          </mxGeometry>
        </mxCell>
        <mxCell id="8HAPZSc-oPPEdkhKKwZJ-15" value="&lt;font style=&quot;font-size: 12px;&quot;&gt;Amazon API Gateway&lt;/font&gt;" style="sketch=0;outlineConnect=0;fontColor=#232F3E;gradientColor=none;strokeColor=#ffffff;fillColor=#232F3E;dashed=0;verticalLabelPosition=middle;verticalAlign=bottom;align=center;html=1;whiteSpace=wrap;fontSize=10;fontStyle=1;spacing=3;shape=mxgraph.aws4.productIcon;prIcon=mxgraph.aws4.api_gateway;" parent="1" vertex="1">
          <mxGeometry x="80" y="355" width="50" height="95" as="geometry" />
        </mxCell>
        <mxCell id="-sES5BDnEpW2IbtICMvI-1" value="&lt;font style=&quot;font-size: 12px;&quot;&gt;Amazon Kinesis Video Streams&lt;/font&gt;" style="sketch=0;outlineConnect=0;fontColor=#232F3E;gradientColor=none;strokeColor=#ffffff;fillColor=#232F3E;dashed=0;verticalLabelPosition=middle;verticalAlign=bottom;align=center;html=1;whiteSpace=wrap;fontSize=10;fontStyle=1;spacing=3;shape=mxgraph.aws4.productIcon;prIcon=mxgraph.aws4.kinesis_video_streams;" parent="1" vertex="1">
          <mxGeometry x="280.5" y="305" width="47.5" height="115" as="geometry" />
        </mxCell>
        <mxCell id="-sES5BDnEpW2IbtICMvI-18" style="edgeStyle=orthogonalEdgeStyle;rounded=0;orthogonalLoop=1;jettySize=auto;html=1;exitX=1;exitY=0;exitDx=0;exitDy=0;exitPerimeter=0;strokeWidth=2;strokeColor=#000000;" parent="1" source="-sES5BDnEpW2IbtICMvI-17" edge="1">
          <mxGeometry relative="1" as="geometry">
            <mxPoint x="503" y="273.28571428571433" as="targetPoint" />
          </mxGeometry>
        </mxCell>
        <mxCell id="-sES5BDnEpW2IbtICMvI-19" style="edgeStyle=orthogonalEdgeStyle;rounded=0;orthogonalLoop=1;jettySize=auto;html=1;exitX=1;exitY=1;exitDx=0;exitDy=0;exitPerimeter=0;strokeWidth=2;strokeColor=#000000;" parent="1" source="-sES5BDnEpW2IbtICMvI-17" edge="1">
          <mxGeometry relative="1" as="geometry">
            <mxPoint x="503" y="401" as="targetPoint" />
          </mxGeometry>
        </mxCell>
        <mxCell id="-sES5BDnEpW2IbtICMvI-17" value="" style="strokeWidth=2;html=1;shape=mxgraph.flowchart.annotation_2;align=left;labelPosition=right;pointerEvents=1;strokeColor=#000000;" parent="1" vertex="1">
          <mxGeometry x="330" y="273.5" width="134" height="127.5" as="geometry" />
        </mxCell>
        <mxCell id="-sES5BDnEpW2IbtICMvI-21" value="&lt;font style=&quot;font-size: 14px;&quot;&gt;串流&lt;/font&gt;" style="text;html=1;strokeColor=none;fillColor=none;align=center;verticalAlign=middle;whiteSpace=wrap;rounded=0;" parent="1" vertex="1">
          <mxGeometry x="328" y="311" width="62" height="32" as="geometry" />
        </mxCell>
        <mxCell id="Y38niOHaq9nBWTBVeWCu-8" value="&lt;font style=&quot;font-size: 12px;&quot;&gt;Amazon Rekognition&lt;/font&gt;" style="sketch=0;outlineConnect=0;fontColor=#232F3E;gradientColor=none;strokeColor=#ffffff;fillColor=#232F3E;dashed=0;verticalLabelPosition=middle;verticalAlign=bottom;align=center;html=1;whiteSpace=wrap;fontSize=10;fontStyle=1;spacing=3;shape=mxgraph.aws4.productIcon;prIcon=mxgraph.aws4.rekognition;" parent="1" vertex="1">
          <mxGeometry x="678.25" y="361" width="50" height="80" as="geometry" />
        </mxCell>
        <mxCell id="Y38niOHaq9nBWTBVeWCu-13" style="edgeStyle=orthogonalEdgeStyle;rounded=0;orthogonalLoop=1;jettySize=auto;html=1;" parent="1" source="Y38niOHaq9nBWTBVeWCu-9" target="Y38niOHaq9nBWTBVeWCu-10" edge="1">
          <mxGeometry relative="1" as="geometry" />
        </mxCell>
        <mxCell id="Y38niOHaq9nBWTBVeWCu-9" value="&lt;font style=&quot;font-size: 12px;&quot;&gt;Amazon SQS&lt;/font&gt;" style="sketch=0;outlineConnect=0;fontColor=#232F3E;gradientColor=none;strokeColor=#ffffff;fillColor=#232F3E;dashed=0;verticalLabelPosition=middle;verticalAlign=bottom;align=center;html=1;whiteSpace=wrap;fontSize=10;fontStyle=1;spacing=3;shape=mxgraph.aws4.productIcon;prIcon=mxgraph.aws4.sqs;" parent="1" vertex="1">
          <mxGeometry x="860" y="156" width="50" height="80" as="geometry" />
        </mxCell>
        <mxCell id="Y38niOHaq9nBWTBVeWCu-10" value="&lt;font style=&quot;font-size: 12px;&quot;&gt;Amazon SNS&lt;/font&gt;" style="sketch=0;outlineConnect=0;fontColor=#232F3E;gradientColor=none;strokeColor=#ffffff;fillColor=#232F3E;dashed=0;verticalLabelPosition=middle;verticalAlign=bottom;align=center;html=1;whiteSpace=wrap;fontSize=10;fontStyle=1;spacing=3;shape=mxgraph.aws4.productIcon;prIcon=mxgraph.aws4.sns;" parent="1" vertex="1">
          <mxGeometry x="990" y="156" width="50" height="80" as="geometry" />
        </mxCell>
        <mxCell id="Y38niOHaq9nBWTBVeWCu-14" value="&lt;span style=&quot;font-size: 14px;&quot;&gt;警告&lt;/span&gt;" style="text;html=1;strokeColor=none;fillColor=none;align=center;verticalAlign=middle;whiteSpace=wrap;rounded=0;" parent="1" vertex="1">
          <mxGeometry x="920" y="165" width="60" height="30" as="geometry" />
        </mxCell>
        <mxCell id="Y38niOHaq9nBWTBVeWCu-18" value="&lt;font style=&quot;font-size: 12px;&quot;&gt;AWS Lambda&lt;/font&gt;" style="sketch=0;outlineConnect=0;fontColor=#232F3E;gradientColor=none;strokeColor=#ffffff;fillColor=#232F3E;dashed=0;verticalLabelPosition=middle;verticalAlign=bottom;align=center;html=1;whiteSpace=wrap;fontSize=10;fontStyle=1;spacing=3;shape=mxgraph.aws4.productIcon;prIcon=mxgraph.aws4.lambda;" parent="1" vertex="1">
          <mxGeometry x="509" y="560" width="50" height="85" as="geometry" />
        </mxCell>
      </root>
    </mxGraphModel>
  </diagram>
</mxfile>
